# xmcd
#
# Track frame offsets: 
#        150
#        23312
#        37765
#        48296
#        60503
#        79301
#        89064
#        106583
#        119314
#        138447
#        149944
#        170551
#        187719
#        203686
#        220021
#        236907
#        254526
#        270895
#        286759
#        304785
#        322053
#        341651
#
# Disc length: 4725 seconds
#
# Revision: 0
# Processed by: cddbd v1.4PL0 Copyright (c) Steve Scherf et al.
# Submitted via: ExactAudioCopy v0.90a11
#
DISCID=36127316
DTITLE=Nine Below Zero - On The Road Again - Off The Hook
DYEAR=1900
DGENRE=
TTITLE0=On The Road Again
TTITLE1=No More The Blues
TTITLE2=Kiddio
TTITLE3=Much Too Much
TTITLE4=Doin' Fine
TTITLE5=Mama Talk To Your Daughter
TTITLE6=Cold Cruel Heart
TTITLE7=Sweet Little Contessa
TTITLE8=Hard Goin' Up
TTITLE9=Sioux's Shoes
TTITLE10=The Bird
TTITLE11=Soft Touch
TTITLE12=Bad Town
TTITLE13=Work Shy
TTITLE14=Down In The Dirt Again
TTITLE15=Jump Back Baby
TTITLE16=She Gives Me The Shakes
TTITLE17=Satellite Blues
TTITLE18=Fire Down Below
TTITLE19=Blue Moon Fever
TTITLE20=Another Kinda Love
TTITLE21=Goodbye Cherry Red
EXTD=
EXTT0=
EXTT1=
EXTT2=
EXTT3=
EXTT4=
EXTT5=
EXTT6=
EXTT7=
EXTT8=
EXTT9=
EXTT10=
EXTT11=
EXTT12=
EXTT13=
EXTT14=
EXTT15=
EXTT16=
EXTT17=
EXTT18=
EXTT19=
EXTT20=
EXTT21=
PLAYORDER=
